<?xml version="1.0" encoding="UTF-8"?>
<!DOCTYPE svg PUBLIC "-//W3C//DTD SVG 1.1//EN" "http://www.w3.org/Graphics/SVG/1.1/DTD/svg11.dtd">
<!-- Creator: CorelDRAW 2021.5 -->
<svg xmlns="http://www.w3.org/2000/svg" xml:space="preserve" width="1042px" height="1053px" version="1.1" style="shape-rendering:geometricPrecision; text-rendering:geometricPrecision; image-rendering:optimizeQuality; fill-rule:evenodd; clip-rule:evenodd"
viewBox="0 0 377.74 381.81"
 xmlns:xlink="http://www.w3.org/1999/xlink"
 xmlns:xodm="http://www.corel.com/coreldraw/odm/2003">
 <defs>
  <style type="text/css">
   <![CDATA[
    .fil0 {fill:url(#id0)}
   ]]>
  </style>
  <linearGradient id="id0" gradientUnits="userSpaceOnUse" x1="127.13" y1="-100.64" x2="127.13" y2="451.24">
   <stop offset="0" style="stop-opacity:1; stop-color:#E7B462"/>
   <stop offset="0.121569" style="stop-opacity:1; stop-color:#7A4D33"/>
   <stop offset="0.431373" style="stop-opacity:1; stop-color:#E7B462"/>
   <stop offset="0.521569" style="stop-opacity:1; stop-color:#F8F4AE"/>
   <stop offset="0.701961" style="stop-opacity:1; stop-color:#E7B462"/>
   <stop offset="0.901961" style="stop-opacity:1; stop-color:#AB7543"/>
   <stop offset="1" style="stop-opacity:1; stop-color:#FBC66A"/>
  </linearGradient>
 </defs>
 <g id="Layer_x0020_1">
  <metadata id="CorelCorpID_0Corel-Layer"/>
  <path class="fil0" d="M246.83 372.74c10.46,-44.84 48.24,-75.81 74.41,-86.63 -47.86,11.42 -75.79,57.77 -82.58,83.26 0,0 -3.87,-29.33 31.43,-62.46 35.3,-33.13 80.78,-39.8 85.74,-81.64 4.97,-41.83 -15.82,-67.93 -15.82,-67.93 0,0 -8.42,2.76 -7.1,13.64 1.32,10.88 12.68,29.97 -1.46,61.06 -14.15,31.09 -59.54,38.68 -59.54,38.68 0,0 -2.4,-6.89 1.1,-17.03 3.49,-10.13 20.29,-20.06 25.31,-44.79 5.02,-24.73 -13.53,-24.98 -13.53,-24.98 0,0 3.05,5.67 -3.28,22.29 -6.33,16.61 -30.92,29.63 -54.3,54.56 -23.37,24.92 -24.29,69.1 -24.29,69.1l0 45.37 0 6.05c3.09,-0.23 6.15,-0.53 9.2,-0.9 0.54,-41.09 24.47,-87.53 75.07,-99.43 -36.22,17.8 -64.63,59.13 -64,97.73 8.07,-1.48 15.96,-3.47 23.64,-5.95zm3.95 -358.27c73.9,25.63 126.96,95.85 126.96,178.47 0,72.48 -40.84,135.41 -100.75,167.08 -0.99,0.42 -4.9,1.76 -6.58,-2.39 -1.48,-3.61 1.07,-5.66 2.39,-6.45l0.64 -0.34 0.08 -0.03 0 -0.01c56.22,-30.21 94.45,-89.57 94.45,-157.86 0,-78.07 -49.97,-144.46 -119.66,-168.98l0 -0.02c-8,-2.6 -4.48,-11.45 2.47,-9.47zm-150.03 345.55c-59.91,-31.67 -100.75,-94.6 -100.75,-167.08 0,-82.62 53.06,-152.84 126.96,-178.47 6.94,-1.98 10.47,6.87 2.46,9.47l0 0.02c-69.69,24.52 -119.65,90.91 -119.65,168.98 0,68.29 38.23,127.65 94.45,157.86l0 0.01 0.08 0.03 0.64 0.34c1.32,0.79 3.86,2.84 2.39,6.45 -1.69,4.15 -5.6,2.81 -6.58,2.39zm67.35 -164.47c-2.29,1.57 -2.87,4.74 -1.3,7.03l16.97 24.66 0 154.5c1.7,0.04 3.39,0.07 5.1,0.07 1.67,0 3.34,-0.02 5.01,-0.07l0 -154.5 16.97 -24.66c1.57,-2.29 0.99,-5.46 -1.3,-7.03 -2.29,-1.57 -5.45,-0.99 -7.03,1.3l-8.64 12.56 0 -57.01c0,-2.77 -2.28,-5.05 -5.05,-5.05 -2.78,0 -5.06,2.27 -5.06,5.05l0 57.01 -8.64 -12.56c-1.58,-2.29 -4.74,-2.87 -7.03,-1.3zm3.53 -13.14c0,0 8.01,-33.86 -28.6,-50.82 -36.62,-16.96 -31.7,-41.77 -31.15,-46.69 0.55,-4.92 0.55,-4.92 0.55,-4.92 0,0 -32.97,30.81 -18.02,75.42 14.94,44.6 63.53,35.6 63.53,35.6 0,0 -9.48,-16.41 -28.99,-27.53 -19.51,-11.12 -18.96,-27.35 -18.96,-27.35 0,0 4.56,12.4 23.34,18.05 18.78,5.65 31.36,16.59 38.3,28.24zm34.88 0c0,0 -8.01,-33.86 28.61,-50.82 36.61,-16.96 31.69,-41.77 31.14,-46.69 -0.55,-4.92 -0.55,-4.92 -0.55,-4.92 0,0 32.97,30.81 18.02,75.42 -14.94,44.6 -63.53,35.6 -63.53,35.6 0,0 9.48,-16.41 28.99,-27.53 19.51,-11.12 18.96,-27.35 18.96,-27.35 0,0 -4.56,12.4 -23.34,18.05 -18.78,5.65 -31.36,16.59 -38.3,28.24zm-26.45 -52.55c0,0 -17.63,-20.92 -5.41,-31.68 12.22,-10.76 14.42,-30.74 14.42,-30.74 0,0 2.2,19.98 14.42,30.74 12.21,10.76 -5.41,31.68 -5.41,31.68 42.19,-6.56 39.16,-47.76 35.2,-59.34 -3.97,-11.59 -3.19,-17.59 -3.19,-17.59 0,0 -0.11,0.11 -0.29,0.31l0 0c-0.07,0.04 -4.79,2.87 -6.99,11.42 -1.89,7.37 -3,10.18 -6.25,13.07l0 0 -0.04 0.04 -0.01 0.01 -0.03 0.02 -0.03 0.02 -0.02 0.03 -0.03 0.02 -0.02 0.02 -0.03 0.02 -0.01 0.01 -0.02 0.02 -0.03 0.02 -0.02 0.02 -0.03 0.03 -0.02 0.02 -0.03 0.02 -0.03 0.02 -0.01 0.01 -0.01 0.02 -0.03 0.02 -0.03 0.02 -0.03 0.02 -0.02 0.03 -0.03 0.02 -0.03 0.02 -0.01 0.01 -0.02 0.02 -0.02 0.02 -0.03 0.02 -0.03 0.03 -0.03 0.02 -0.03 0.02 -0.03 0.03 0 0 -0.02 0.02 -0.03 0.02 -0.03 0.02 -0.03 0.03 -0.03 0.02 -0.03 0.02 -0.03 0.03 0 0 -0.02 0.02 -0.03 0.02 -0.03 0.03 -0.03 0.02 -0.03 0.02 -0.03 0.03 -0.03 0.02 -0.01 0 -0.02 0.02 -0.03 0.03 -0.03 0.02 -0.03 0.02 -0.03 0.03 -0.03 0.02 -0.03 0.02 -0.01 0.01 -0.02 0.02 -0.03 0.02 -0.03 0.03 -0.04 0.02 -0.03 0.02 -0.03 0.03 -0.03 0.02 0 0 -0.03 0.02 -0.03 0.03 -0.03 0.02 -0.03 0.02 -0.04 0.03 -0.03 0.02 -0.03 0.03c-4.74,3.55 -6.71,4.26 -6.71,4.26l0 -0.01 0.01 -0.01 0.01 -0.01 0 0 0.01 -0.01 0.01 -0.02 0.01 -0.01 0.01 -0.02 0.02 -0.03 0.01 -0.01 0.01 -0.02 0.02 -0.03 0.01 -0.02 0.02 -0.02 0.02 -0.04 0.02 -0.03 0.01 -0.02 0.03 -0.05 0.02 -0.03 0.02 -0.02 0.03 -0.06 0.03 -0.04 0.01 -0.02 0.04 -0.06 0.03 -0.06 0 -0.01 0.05 -0.08 0.04 -0.06 0 -0.01 0.05 -0.08 0.04 -0.09 0 0 0.05 -0.09 0.05 -0.09 0 0 0.05 -0.1 0.05 -0.1 0 -0.01 0.05 -0.09 0.05 -0.11 0.02 -0.02 0.04 -0.09 0.05 -0.12 0.02 -0.03 0.04 -0.09 0.06 -0.12 0.02 -0.05 0.04 -0.08 0.05 -0.13 0.03 -0.07 0.03 -0.07 0.06 -0.14 0.04 -0.08 0.03 -0.06 0.05 -0.15 0.05 -0.1 0.02 -0.05 0.06 -0.16 0.05 -0.12 0.01 -0.04 0.07 -0.17 0.05 -0.14 0.01 -0.03 0.06 -0.17 0.06 -0.17 0 -0.01 0.06 -0.18 0.07 -0.19 0 0 0.06 -0.19 0.07 -0.19 0 -0.03 0.06 -0.17 0.06 -0.21 0.02 -0.04 0.05 -0.16 0.06 -0.22 0.01 -0.06 0.05 -0.15 0.06 -0.22 0.02 -0.09 0.04 -0.14 0.06 -0.23 0.03 -0.11 0.03 -0.13 0.06 -0.23 0.03 -0.13 0.03 -0.12 0.06 -0.24 0.03 -0.16 0.02 -0.1 0.06 -0.25 0 0c1.28,-6 1.79,-15.63 -1.66,-29.67 -6.63,-26.94 -30.71,-43.71 -35.93,-45.84 0,0 8.83,19.46 2.48,39.89 -6.35,20.43 -16.43,30.65 -16.43,30.65 0,0 -1.42,-4.54 -4.5,-9.54 -3.04,-4.91 -6.47,-7.6 -6.58,-7.68 -0.22,-0.26 -0.35,-0.39 -0.35,-0.39 0,0 0.78,6 -3.19,17.59 -3.97,11.58 -6.99,52.78 35.2,59.34zm-49.15 242.88c-10.47,-44.84 -48.24,-75.81 -74.42,-86.63 47.87,11.42 75.8,57.77 82.59,83.26 0,0 3.86,-29.33 -31.43,-62.46 -35.3,-33.13 -80.78,-39.8 -85.75,-81.64 -4.96,-41.83 15.83,-67.93 15.83,-67.93 0,0 8.42,2.76 7.1,13.64 -1.32,10.88 -12.68,29.97 1.46,61.06 14.14,31.09 59.53,38.68 59.53,38.68 0,0 2.4,-6.89 -1.09,-17.03 -3.49,-10.13 -20.3,-20.06 -25.32,-44.79 -5.01,-24.73 13.54,-24.98 13.54,-24.98 0,0 -3.06,5.67 3.27,22.29 6.33,16.61 30.93,29.63 54.3,54.56 23.38,24.92 24.3,69.1 24.3,69.1l0 45.37 0 6.05c-3.09,-0.23 -6.16,-0.53 -9.2,-0.9 -0.54,-41.09 -24.47,-87.53 -75.07,-99.43 36.21,17.8 64.63,59.13 64,97.73 -8.07,-1.48 -15.96,-3.47 -23.64,-5.95zm-60.92 -198.4c0,0 -8.41,19.85 -2.33,38.72 6.08,18.88 16.53,30.17 22.99,36.17 6.46,6 5.5,10.05 5.5,10.05 0,0 -33.22,-5.85 -44.26,-38.81 -11.04,-32.96 14.61,-62.71 14.61,-62.71 0,0 7.72,7.11 3.49,16.58zm237.76 0c0,0 8.41,19.85 2.33,38.72 -6.08,18.88 -16.53,30.17 -22.99,36.17 -6.46,6 -5.51,10.05 -5.51,10.05 0,0 33.22,-5.85 44.27,-38.81 11.04,-32.96 -14.61,-62.71 -14.61,-62.71 0,0 -7.72,7.11 -3.49,16.58z"/>
 </g>
</svg>
